PathFileType	4	(X/Y/Z)	C:/Users/opensim2020/Desktop/walking_exp_matlab/subject01_walking06_straight_04.trc	
DataRate	CameraRate	NumFrames	NumMarkers	Units	OrigDataRate	OrigDataStartFrame	OrigNumFrames	
100.00	100.00	6	43	mm	100.00	2922	212	
Frame#	Time	LFHD			RFHD			LBHD			RBHD			C7			T10			CLAV			STRN			RBAK			LSHO			LUPA			LELB			LFRM			LWRA			LWRB			LFIN			RSHO			RUPA			RELB			RFRM			RWRA			RWRB			RFIN			LASI			RASI			LPSI			RPSI			LTHI			LKNE			LTIB			LANK			LHEE			LTOE			RTHI			RKNE			RTIB			RANK			RHEE			RTOE			*39			*40			*41			*42			
		X1	Y1	Z1	X2	Y2	Z2	X3	Y3	Z3	X4	Y4	Z4	X5	Y5	Z5	X6	Y6	Z6	X7	Y7	Z7	X8	Y8	Z8	X9	Y9	Z9	X10	Y10	Z10	X11	Y11	Z11	X12	Y12	Z12	X13	Y13	Z13	X14	Y14	Z14	X15	Y15	Z15	X16	Y16	Z16	X17	Y17	Z17	X18	Y18	Z18	X19	Y19	Z19	X20	Y20	Z20	X21	Y21	Z21	X22	Y22	Z22	X23	Y23	Z23	X24	Y24	Z24	X25	Y25	Z25	X26	Y26	Z26	X27	Y27	Z27	X28	Y28	Z28	X29	Y29	Z29	X30	Y30	Z30	X31	Y31	Z31	X32	Y32	Z32	X33	Y33	Z33	X34	Y34	Z34	X35	Y35	Z35	X36	Y36	Z36	X37	Y37	Z37	X38	Y38	Z38	X39	Y39	Z39	X40	Y40	Z40	X41	Y41	Z41	X42	Y42	Z42	X43	Y43	Z43	

133	1.320	-1046.79639	-111.65973	1652.76575	-1157.19946	-145.87440	1655.76074	-1077.69714	4.63699	1613.63501	-1193.59985	-28.75551	1616.81421	-1111.32043	43.43739	1415.32690	-1116.82703	69.94460	1119.47791	-1104.03162	-102.85437	1349.34082	-1098.45801	-148.84395	1197.46851	-1191.37317	90.87111	1219.95874	-944.66461	-35.00770	1378.18896	-864.39185	13.81818	1194.38696	-871.15002	47.73852	1050.15649	-847.04126	38.86233	937.47241	-868.17798	-3.82078	804.07330	-840.42297	48.56384	815.24170	-837.90637	25.57094	732.58289	-1258.42236	-45.52127	1375.98413	-1368.24121	-13.37714	1176.56543	-1381.15210	-32.94688	1051.44226	-1412.87915	-105.05311	952.76349	-1394.78711	-226.74117	882.82837	-1432.27173	-187.17561	863.80859	-1435.67236	-255.31070	814.90131	-1015.32867	-116.22377	919.65717	-1233.58313	-100.23556	914.74103	-1048.58569	73.54715	928.08234	-1192.18335	83.29801	936.74280	-954.78656	-162.36992	603.77362	-972.27411	-187.01636	474.72574	-963.06989	-178.76210	286.81946	-1007.06549	-210.41008	69.23457	-1060.58569	-169.85158	36.79092	-1007.02466	-356.72241	46.63828	-1287.05310	27.85764	596.64697	-1267.42651	64.68961	437.78085	-1271.91626	195.62018	317.01505	-1230.01477	314.80002	143.52460	-1179.21777	372.18942	138.53043	-1218.17664	217.66876	35.90248	-1136.60522	-130.74365	1689.96265	-3101.84424	1973.16504	1023.25256	-3140.53320	2012.55737	1022.02997			 
134	1.330	-1044.13342	-122.56504	1653.15833	-1154.68518	-156.47824	1656.20654	-1074.66785	-6.24040	1614.17505	-1190.74487	-39.22239	1617.38464	-1108.24304	31.98175	1415.75488	-1115.20874	58.51848	1119.71167	-1101.65735	-113.83728	1349.90210	-1096.11975	-160.31949	1198.09619	-1188.64124	79.86045	1219.91016	-942.03168	-46.05215	1377.75867	-862.32477	1.02022	1193.34351	-869.24158	34.21095	1048.88611	-845.21863	24.74272	936.14825	-866.93030	-18.08473	802.92249	-838.59271	33.97076	813.93121	-836.61798	10.83325	731.45929	-1256.02185	-56.16413	1376.28784	-1365.51135	-22.79345	1176.76636	-1378.86243	-42.03003	1051.61938	-1411.38403	-113.26364	952.38306	-1393.23572	-234.34000	881.26306	-1431.03125	-194.57173	862.81311	-1434.44580	-262.28894	813.38751	-1013.69556	-128.55243	920.07587	-1231.80469	-112.42568	914.72876	-1047.42944	61.49682	928.72430	-1191.29993	71.05483	935.98517	-952.26233	-173.30289	604.77502	-972.06232	-199.41896	476.83670	-961.16614	-189.68265	288.44312	-1006.82379	-212.75529	69.47944	-1059.76282	-171.26967	37.67078	-1007.04248	-358.85947	42.14485	-1286.34448	12.56813	595.60828	-1268.25110	48.46756	436.56430	-1272.18860	183.14966	319.88663	-1230.84485	307.07901	149.69598	-1179.47815	363.66895	147.70537	-1218.10754	216.76663	35.81185	-1134.34998	-141.70210	1690.68384	-3101.91382	1973.17126	1023.32043	-3140.66260	2012.56238	1022.04559			 
135	1.340	-1041.76624	-133.50081	1653.23584	-1152.00330	-167.04579	1656.67615	-1071.21875	-16.76728	1614.67053	-1187.84875	-49.67324	1617.91919	-1105.72546	20.70030	1416.27100	-1113.61572	47.82728	1120.08142	-1099.21765	-124.87154	1350.60181	-1093.87695	-171.79756	1198.92505	-1186.20569	68.79527	1220.11475	-939.61334	-56.94078	1377.56445	-860.10248	-11.69907	1192.68726	-867.14941	20.34904	1048.02686	-843.41302	10.29043	935.31195	-865.60638	-32.94483	802.28345	-836.73883	18.78415	813.02338	-835.21350	-4.50575	730.59387	-1253.57166	-67.03257	1376.84180	-1362.67432	-32.00179	1177.14648	-1376.47217	-51.07608	1052.17688	-1409.15137	-121.22141	952.10974	-1391.61670	-241.50496	879.75537	-1429.20508	-201.50948	861.79083	-1433.21252	-268.54425	811.81122	-1012.02783	-140.67992	921.10614	-1229.85864	-124.57655	915.00977	-1046.61304	49.78782	929.59656	-1190.63977	58.75263	935.52466	-950.60583	-184.08882	606.03925	-972.19678	-211.41806	478.21896	-958.81342	-199.81454	289.34250	-1007.04980	-214.84271	69.75895	-1059.79578	-172.43460	38.33451	-1006.25153	-360.83102	39.91307	-1285.77307	-3.52463	594.55713	-1269.86426	30.92627	435.43552	-1272.51062	168.99892	322.51279	-1231.58630	298.02570	156.30420	-1178.93201	352.94061	156.93881	-1217.82373	215.69096	35.82605	-1131.76904	-152.56581	1691.24231	-3101.89551	1973.19788	1023.49371	-3140.79321	2012.56079	1022.00604			 
136	1.350	-1039.12634	-144.29259	1653.61572	-1149.48218	-177.47523	1657.21143	-1068.16675	-27.45993	1615.03064	-1185.03601	-60.09621	1618.45093	-1103.76868	9.86726	1416.61377	-1111.94470	36.57948	1120.43335	-1096.78918	-135.75427	1351.17615	-1091.56201	-183.34103	1199.80005	-1183.93823	57.64851	1220.43958	-937.27252	-67.62607	1377.61487	-857.90063	-24.45194	1192.24158	-865.30054	6.54278	1047.22510	-841.48596	-4.40870	934.81390	-864.18451	-48.43207	801.96759	-834.89130	3.16572	812.52991	-833.87756	-20.61384	729.93396	-1251.15576	-78.06611	1377.48145	-1359.81567	-41.09377	1177.76465	-1374.04553	-60.02794	1052.98901	-1407.03674	-128.90315	952.29742	-1389.91541	-248.12842	878.13281	-1427.55237	-207.93626	860.97498	-1431.82715	-274.21295	810.05145	-1010.52191	-152.04712	922.37982	-1227.61841	-136.41573	915.33673	-1045.96179	38.38900	930.46960	-1190.04565	46.60103	935.35272	-950.12549	-195.56850	607.26587	-972.27698	-222.48964	478.33380	-956.64972	-208.77968	289.14194	-1007.53076	-216.33577	69.93518	-1059.78088	-173.11261	38.65378	-1006.46381	-362.62408	38.52309	-1285.58447	-20.30597	593.44299	-1271.27856	12.39987	434.13321	-1272.76831	153.62616	325.03702	-1231.85974	287.17236	162.89920	-1178.03259	340.39673	166.82603	-1217.54150	215.25568	35.63516	-1129.14771	-163.46295	1691.79321	-3101.75684	1973.19873	1023.38654	-3140.61865	2012.58875	1021.99811			 
137	1.360	-1036.30554	-155.02032	1654.34949	-1147.07446	-187.90953	1657.84375	-1065.29187	-38.16532	1615.37476	-1182.25916	-70.41164	1618.96875	-1101.05359	-0.67984	1416.63940	-1110.32983	25.46907	1120.89014	-1094.49463	-146.67314	1351.92590	-1089.48621	-194.69427	1200.71814	-1181.90344	46.51617	1220.89868	-935.04480	-78.24918	1377.75171	-855.76367	-37.11083	1192.05652	-863.17358	-7.58760	1046.73816	-839.46704	-19.43398	934.59106	-862.68762	-64.50085	802.07813	-832.86664	-13.03468	812.19147	-832.46991	-37.33898	729.46613	-1248.80469	-89.07465	1378.31348	-1356.84839	-50.35175	1178.45154	-1371.67285	-68.91534	1053.96313	-1404.85986	-136.37993	952.63019	-1388.15979	-254.40782	876.44623	-1425.63477	-213.74658	859.79120	-1430.45325	-279.40921	808.07794	-1008.68341	-163.22064	923.76392	-1225.28381	-148.14841	915.90057	-1045.28259	27.20820	931.39246	-1189.42249	34.66274	935.31714	-949.89850	-207.41788	607.94733	-971.98669	-232.79938	477.59393	-955.71191	-216.27904	287.99387	-1007.86902	-217.77243	69.77071	-1059.68567	-173.53311	38.89199	-1007.44226	-364.26184	37.33972	-1285.60266	-37.49691	592.40662	-1272.88464	-7.17465	432.74457	-1272.95789	137.20638	327.52481	-1232.41772	274.96677	169.46281	-1177.25085	325.83902	176.97713	-1216.54163	215.08681	35.34756	-1126.43677	-173.94905	1692.30896	-3101.94629	1973.04907	1023.34149	-3140.54199	2012.51001	1021.98230			 
138	1.370	-1034.10449	-165.68800	1654.55933	-1144.64136	-198.32097	1658.47449	-1063.21350	-49.00387	1615.79980	-1179.63770	-80.78197	1619.61328	-1098.87244	-11.15353	1416.76221	-1108.79199	14.38675	1121.47949	-1092.28833	-157.53218	1352.67786	-1087.46289	-205.97005	1201.62866	-1180.21667	35.54549	1221.49768	-932.95380	-88.90789	1377.97839	-853.73364	-49.59920	1192.06653	-860.86157	-21.24039	1046.52209	-837.38910	-34.76939	934.35004	-861.21442	-81.00439	802.24548	-830.70123	-29.87431	811.89087	-830.87781	-54.87143	729.27264	-1246.54028	-100.04626	1379.13135	-1354.21252	-59.70897	1179.34521	-1369.28430	-77.70756	1055.06519	-1402.79346	-143.65578	952.92126	-1386.30005	-260.40680	874.64020	-1423.75110	-219.36543	858.74414	-1428.89417	-284.14105	805.92688	-1006.42700	-174.23495	925.20758	-1222.87146	-159.66017	916.41095	-1044.40137	15.99312	932.31244	-1188.72803	23.16692	935.38123	-949.37128	-218.64377	607.90009	-971.57739	-242.07278	476.30756	-955.54901	-222.61647	286.81561	-1008.17065	-218.92123	69.55758	-1059.68738	-173.75560	39.06681	-1007.63202	-365.47037	36.54534	-1285.94470	-55.26350	591.07159	-1273.61792	-27.35473	431.35846	-1273.21094	119.70479	330.02060	-1233.42273	261.52985	175.65186	-1177.34265	310.23993	187.25253	-1215.54504	213.37943	36.49406	-1123.96277	-184.16469	1692.91284	-3101.86035	1973.11865	1023.55963	-3140.68115	2012.50720	1021.93207			 
